<svg id="Capa_1" enable-background="new 0 0 512 512" height="512" viewBox="0 0 512 512" width="512" xmlns="http://www.w3.org/2000/svg"><g><g><path d="m395.945 266.021v-63.723c0-4.142-3.357-7.5-7.5-7.5s-7.5 3.358-7.5 7.5v63.723c0 4.142 3.357 7.5 7.5 7.5s7.5-3.358 7.5-7.5z"/><path d="m114.643 219.277c0-6.701-2.659-12.79-6.973-17.282l9.872-17.97c1.994-3.63.668-8.19-2.962-10.185-3.631-1.995-8.189-.667-10.185 2.962l-9.872 17.969c-1.585-.316-3.223-.484-4.9-.484-13.795 0-25.018 11.21-25.018 24.99 0 13.795 11.223 25.019 25.018 25.019s25.02-11.224 25.02-25.019zm-35.037 0c0-5.508 4.494-9.99 10.018-9.99s10.019 4.481 10.019 9.99c0 5.524-4.494 10.019-10.019 10.019-5.523-.001-10.018-4.495-10.018-10.019z"/><path d="m499.192 224.027c4.143 0 7.5-3.358 7.5-7.5v-101.055c0-13.858-11.273-25.132-25.131-25.132h-161.911c-13.842 0-25.103 11.274-25.103 25.132v12.928c-7.473 4.937-12.416 13.408-12.416 23.015v65.594c0 4.142 3.357 7.5 7.5 7.5s7.5-3.358 7.5-7.5v-65.594c0-5.17 3.139-9.617 7.609-11.545.101-.039.202-.076.3-.119 1.443-.578 3.013-.906 4.66-.906h104.652c6.915 0 12.541 5.639 12.541 12.569v165.487c0 6.915-5.626 12.541-12.541 12.541h-104.651c-.43 0-.855-.022-1.274-.064-.046-.005-.091-.015-.137-.02-6.268-.703-11.158-6.018-11.158-12.457v-65.253c0-4.142-3.357-7.5-7.5-7.5s-7.5 3.358-7.5 7.5v65.253c0 9.598 4.943 18.06 12.416 22.991v12.952c0 13.842 11.261 25.103 25.103 25.103h14.694v24.418c0 30.189-24.56 54.749-54.747 54.749s-54.747-24.56-54.747-54.749v-205.578h6.191c9.48 0 17.193-7.726 17.193-17.223v-27.842c4.034-3.554 7.784-7.83 11.166-12.799 10.439-15.338 16.188-35.545 16.188-56.899 0-21.342-5.749-41.541-16.189-56.875-11.041-16.218-25.974-25.149-42.049-25.149s-31.009 8.931-42.05 25.148c-10.44 15.334-16.189 35.532-16.189 56.875 0 21.354 5.749 41.561 16.188 56.899 3.374 4.957 7.114 9.224 11.137 12.772v27.869c0 9.497 7.726 17.223 17.223 17.223h6.191v205.581c0 38.46 31.288 69.749 69.747 69.749s69.747-31.289 69.747-69.749v-24.418h83.984v93.952c0 13.839-11.259 25.099-25.098 25.099h-151.622-41.696-41.811c-41.895 0-75.979-34.097-75.979-76.009v-85.278h10.16c9.105 0 16.514-7.408 16.514-16.514v-22.841c29.509-13.144 50.144-42.738 50.144-77.081 0-46.494-37.824-84.319-84.317-84.319-46.492 0-84.316 37.825-84.316 84.319 0 34.343 20.635 63.938 50.144 77.082v22.84c0 9.106 7.408 16.514 16.514 16.514h10.159v85.278c0 50.183 40.812 91.009 90.979 91.009h41.811 41.696 151.622c22.11 0 40.098-17.988 40.098-40.099v-93.952h33.232c13.857 0 25.131-11.261 25.131-25.103v-101.707c0-4.142-3.357-7.5-7.5-7.5s-7.5 3.358-7.5 7.5v101.708c0 5.571-4.545 10.103-10.131 10.103h-161.913c-5.57 0-10.103-4.532-10.103-10.103v-8.403c.018 0 .036-.002.053-.002.033 0 .066.002.1.002h104.652c15.187 0 27.541-12.355 27.541-27.541v-165.487c0-15.202-12.354-27.569-27.541-27.569h-104.651c-.051 0-.102.004-.153.004v-8.378c0-5.587 4.532-10.132 10.103-10.132h161.911c5.586 0 10.131 4.545 10.131 10.132v101.055c-.001 4.141 3.357 7.499 7.499 7.499zm-325.081-142.004c0-36.33 19.801-67.023 43.239-67.023s43.239 30.693 43.239 67.023c0 36.346-19.801 67.052-43.239 67.052s-43.239-30.706-43.239-67.052zm29.548 99.764c-1.205 0-2.223-1.018-2.223-2.223v-18.557c5.102 2.007 10.439 3.068 15.914 3.068 5.465 0 10.792-1.056 15.885-3.056v18.545c0 1.205-1.005 2.223-2.193 2.223zm-183.351 37.49c0-38.223 31.096-69.319 69.316-69.319 38.222 0 69.317 31.096 69.317 69.319 0 38.238-31.096 69.348-69.317 69.348s-69.316-31.11-69.316-69.348zm51.657 101.436c-.82 0-1.514-.693-1.514-1.514v-17.801c6.164 1.44 12.577 2.226 19.173 2.226 6.597 0 13.01-.786 19.174-2.226v17.801c0 .821-.693 1.514-1.514 1.514z"/></g></g></svg>